<svg xmlns="http://www.w3.org/2000/svg" version="1.1" xmlns:xlink="http://www.w3.org/1999/xlink" width="2000" height="2249" viewBox="0 0 2000 2249"><svg xml:space="preserve" width="2000" height="2249" data-version="2" data-id="lg_l8llY4fWkUFivGNvUb" viewBox="0 0 498 560" x="0" y="0">
    <rect width="321.792" height="315.946" x="-160.896" y="-157.973" rx="0" ry="0" transform="matrix(1.5129 0 0 1.5129 249 245.388)"></rect>
    <path fill="#CCDFFF" d="m321.773 146.154-39.928-33.638V63.85l39.928 33.508 42.422-33.508 42.425 33.508 39.833-33.508v48.749l-39.833 33.555-42.425-33.508zm0 82.304-39.928-33.638v-48.666l39.928 33.508 42.422-33.508 42.425 33.508 39.833-33.508v48.749l-39.833 33.555-42.425-33.508z"></path>
    <path fill="#F6F5EF" d="m133.863 70.086 21.667-39.512 4.896 44.798 35.136-28.214-12.618 43.259 43.259-12.62-28.211 35.14 44.795 4.896-39.513 21.665 39.513 21.668-44.795 4.896 28.21 35.136-43.258-12.619 12.618 43.26-35.136-28.212-4.896 44.795-21.667-39.512-21.665 39.512-4.897-44.795-35.138 28.211L84.78 188.58l-43.259 12.619 28.214-35.136-44.797-4.896 39.512-21.668-39.512-21.665 44.797-4.896-28.214-35.14 43.26 12.62-12.62-43.26 35.14 28.215 4.896-44.798z"></path>
    <path fill="#CCDFFF" d="m91.425 353.31-39.927-33.638v-48.666l39.927 33.508 42.422-33.508 42.425 33.508 39.834-33.508v48.748l-39.834 33.556-42.425-33.508zm0 82.304-39.927-33.638V353.31l39.927 33.508 42.422-33.508 42.425 33.508 39.834-33.508v48.748l-39.834 33.556-42.425-33.508z"></path>
    <path fill="#F6F5EF" d="m364.15 283.898 21.668-39.512 4.896 44.798 35.136-28.214-12.619 43.26 43.26-12.62-28.212 35.14 44.795 4.895-39.512 21.665 39.512 21.668-44.795 4.896 28.211 35.136-43.259-12.619 12.619 43.26-35.136-28.212-4.896 44.795-21.668-39.512-21.665 39.512-4.896-44.795-35.14 28.212 12.62-43.26-43.26 12.62 28.215-35.137-44.798-4.896 39.512-21.668-39.512-21.665 44.798-4.896-28.214-35.139 43.259 12.62-12.62-43.26 35.14 28.214 4.896-44.798z"></path>
    <path d="M42.47 515.27q9.59 0 15.15 2.32 5.56 2.32 7.78 6.42 2.21 4.11 2.21 10.07 0 5.67-2.55 9.9t-7.65 6.55q-5.1 2.32-12.54 2.32h-9.23q-4.69 0-9.49-.05.41-10.05.41-18.72 0-8.77-.41-18.3 6.07-.51 16.32-.51m3.83 27.43q4.74 0 6.32-2.29 1.58-2.3 1.58-6.33 0-3.87-1.66-6.27-1.65-2.4-6.24-2.4-4.95 0-7.4.31v16.98Z"></path>
    <rect width="41.46" height="37.58" x="-20.73" y="-18.79" fill="none" rx="0" ry="0" transform="matrix(1 0 0 1 47.38 534.56)"></rect>
    <path d="M100.82 552.85q-.97-2.9-2.61-7.29H81.95l-2.55 7.29H66.59l14.28-37.02h18.77l14.38 37.02Zm-5.51-15.25q-1.94-5.35-3.98-10.71l-1.22-3.31q-1.79 4.64-5.26 14.02Z"></path>
    <rect width="47.43" height="37.02" x="-23.715" y="-18.51" fill="none" rx="0" ry="0" transform="matrix(1 0 0 1 90.805 534.84)"></rect>
    <path d="m159.06 515.83-.97 1.48q-5.46 8.46-9.36 14.96-3.9 6.51-6.5 11.96v8.62h-13.31v-9.48q-1.89-3.83-4.44-7.88-2.55-4.06-7.24-11.15-3.67-5.4-5.61-8.51h14.28q1.53 3.11 5 9.23 3.46 6.22 4.74 8.77 1.78-3.72 4.79-9.13 3.52-6.32 4.75-8.87Z"></path>
    <rect width="47.43" height="37.02" x="-23.715" y="-18.51" fill="none" rx="0" ry="0" transform="matrix(1 0 0 1 135.845 534.84)"></rect>
    <path d="m198.48 538.93 2.65-23.1h12.45l-6.84 37.02h-15.65l-3.47-20.65-4.03 20.65h-15l-6.83-37.02h12.44l2.61 22.79 4.08-22.79h13.61Z"></path>
    <rect width="51.82" height="37.02" x="-25.91" y="-18.51" fill="none" rx="0" ry="0" transform="matrix(1 0 0 1 188.17 534.84)"></rect>
    <path d="M247.29 525.98q-6.07-.31-8.98-.36v17.44q2.96-.05 8.98-.36v10.15h-29.63V542.7q5.86.31 8.92.36v-17.44q-3.06.05-8.92.36v-10.15h29.63Z"></path>
    <rect width="29.63" height="37.02" x="-14.815" y="-18.51" fill="none" rx="0" ry="0" transform="matrix(1 0 0 1 232.975 534.84)"></rect>
    <path d="M294.16 515.88q-.36 8.62-.36 18.46 0 9.89.36 18.51H275.9l-12.34-27.84.91 27.84h-13.1q.41-9.89.41-18.51 0-8.57-.41-18.46h18.77l12.39 28.61-.87-28.61Z"></path>
    <rect width="42.79" height="36.97" x="-21.395" y="-18.485" fill="none" rx="0" ry="0" transform="matrix(1 0 0 1 273.265 534.865)"></rect>
    <path d="M320.88 542.55q14.79-.1 24.48-.51-.66 2.6-.82 5-.15 2.4-.15 5.81h-35.95q.4-9.89.4-18.51 0-8.62-.4-18.51h12.44Z"></path>
    <rect width="36.92" height="37.02" x="-18.46" y="-18.51" fill="none" rx="0" ry="0" transform="matrix(1 0 0 1 327.4 534.84)"></rect>
    <path d="M381.62 552.85q-.97-2.9-2.6-7.29h-16.27l-2.55 7.29h-12.8l14.28-37.02h18.77l14.38 37.02Zm-5.51-15.25q-1.93-5.35-3.97-10.71l-1.23-3.31q-1.78 4.64-5.25 14.02Z"></path>
    <rect width="47.43" height="37.02" x="-23.715" y="-18.51" fill="none" rx="0" ry="0" transform="matrix(1 0 0 1 371.615 534.84)"></rect>
    <path d="M426.4 534.44q11.63 0 11.63 7.4 0 3.46-1.58 5.89-1.58 2.42-5.66 3.77t-11.33 1.35h-22.95q.41-9.89.41-18.51 0-8.62-.41-18.51h11.99v.05h10.86q6.33 0 9.97 1.04 3.65 1.05 5.15 3.04 1.51 1.99 1.51 5.05 0 3.11-2.17 5.53-2.17 2.42-7.42 3.9m-17.9-9.28v4.74h9.79q3.16 0 4.41-.56t1.25-2.04q0-1.17-1.3-1.66-1.3-.48-4.36-.48Zm9.79 18.36q2.65 0 4.05-.23 1.41-.23 2.02-.82.61-.58.61-1.6 0-1.33-1.45-1.92-1.46-.58-5.23-.58h-9.79v5.15Z"></path>
    <rect width="41.52" height="37.02" x="-20.76" y="-18.51" fill="none" rx="0" ry="0" transform="matrix(1 0 0 1 417.77 534.84)"></rect>
    <path d="M442.11 548.47q1.73-2.6 2.88-4.85 1.15-2.24 2.22-5.2 3.62 2.09 8.41 3.26 4.8 1.18 8.93 1.18 4.23 0 5.96-.74 1.74-.74 1.74-1.61 0-3.11-9.49-3.11-10.4 0-15.09-2.17-4.7-2.17-4.7-7.01 0-6.89 5.72-10.15 5.71-3.26 14.84-3.26 5.3 0 10.89 1.35 5.58 1.35 10.07 3.7-1.48 3.36-3.11 8.21-.31 1.02-.51 1.53-2.6-2.09-7.86-3.5-5.25-1.4-9.28-1.4-4.84 0-6.53.64-1.68.64-1.68 1.86 0 1.22 2.32 1.96t6.71.74q10.81 0 15.71 2.48 4.89 2.47 4.89 7.57 0 7.14-5.2 10.28-5.2 3.13-15.76 3.13-5.66 0-11.53-1.25-5.86-1.25-10.55-3.64"></path>
    <rect width="43.04" height="38.55" x="-21.52" y="-19.275" fill="none" rx="0" ry="0" transform="matrix(1 0 0 1 464.13 534.585)"></rect>
</svg></svg>