
<!-- Generator: visioncortex VTracer 0.6.4 -->
<svg version="1.1" xmlns="http://www.w3.org/2000/svg" viewBox="0 0 600 600" preserveAspectRatio="xMidYMid meet">
<path d="M0 0 C0.942 0.001 1.884 0.001 2.854 0.002 C61.436 0.157 117.648 22.544 159.549 63.767 C161.075 65.264 162.619 66.738 164.172 68.207 C171.277 75.061 177.287 82.494 183.188 90.375 C183.604 90.92 184.02 91.464 184.448 92.025 C214.075 130.886 228.668 178.649 228.562 227.188 C228.562 228.6 228.562 228.6 228.561 230.042 C228.394 293.231 202.376 349.639 157.974 393.893 C151.434 400.291 144.602 406.028 137.188 411.375 C136.146 412.138 135.104 412.901 134.031 413.688 C83.342 449.823 21.051 463.136 -40.244 452.955 C-77.012 446.275 -111.645 430.758 -140.812 407.375 C-141.797 406.594 -142.782 405.813 -143.797 405.008 C-158.368 393.203 -171.968 379.704 -182.812 364.375 C-183.294 363.695 -183.775 363.015 -184.271 362.314 C-202.995 335.571 -216.126 306.581 -223.062 274.625 C-223.214 273.93 -223.365 273.235 -223.521 272.518 C-226.492 257.89 -227.221 243.443 -227.188 228.562 C-227.187 227.62 -227.186 226.677 -227.185 225.705 C-227.003 166.15 -203.949 111.213 -162.812 68.375 C-162.325 67.861 -161.838 67.346 -161.336 66.816 C-153.752 58.829 -145.632 51.957 -136.812 45.375 C-136.269 44.96 -135.726 44.546 -135.167 44.119 C-109.452 24.512 -79.57 11.637 -48.125 4.625 C-47.236 4.426 -46.346 4.227 -45.43 4.022 C-30.284 0.82 -15.43 -0.034 0 0 Z " fill="#2CA01C" transform="translate(298.8125,67.625)"/>
<path d="M0 0 C10.56 0 21.12 0 32 0 C32 63.69 32 127.38 32 193 C72.452 193.392 72.452 193.392 104.355 173.547 C113.793 162.285 118.599 149.734 118.375 135.062 C118.359 133.609 118.359 133.609 118.342 132.125 C117.996 116.621 112.255 103.504 101.441 92.215 C89.515 81.395 75.777 77.26 60.062 76.438 C57.402 76.293 54.741 76.149 52 76 C52 65.44 52 54.88 52 44 C76.293 43.556 76.293 43.556 86 47 C87.248 47.402 88.496 47.804 89.781 48.219 C113.181 56.068 131.926 72.902 143.064 94.957 C153.456 117.643 154.157 143.146 145.75 166.562 C135.904 190.594 119.079 208.584 94.941 218.758 C64.335 230.957 34.159 225 0 225 C0 150.75 0 76.5 0 0 Z " fill="#FCFDFC" transform="translate(309,161)"/>
<path d="M0 0 C0 74.25 0 148.5 0 225 C-10.56 225 -21.12 225 -32 225 C-32 161.31 -32 97.62 -32 32 C-72.145 31.716 -72.145 31.716 -103.863 51.352 C-110.158 59.154 -114.92 68.157 -117 78 C-117.227 79.072 -117.454 80.145 -117.688 81.25 C-117.791 82.488 -117.894 83.725 -118 85 C-118.088 85.96 -118.175 86.921 -118.266 87.91 C-119.049 103.423 -113.144 118.042 -103.387 129.973 C-89.336 145.231 -71.525 148.078 -52 149 C-52 159.56 -52 170.12 -52 181 C-70.582 181.52 -85.391 179.805 -102 171 C-102.994 170.499 -103.988 169.997 -105.012 169.48 C-126.463 157.956 -140.998 137.405 -148.035 114.469 C-154.946 89.625 -150.336 65.407 -137.875 43.062 C-125.79 23.324 -106.208 8.339 -83.75 2.562 C-81.504 2.025 -79.254 1.501 -77 1 C-52.098 -5.226 -25.669 0 0 0 Z " fill="#FDFEFD" transform="translate(289,205)"/>
<path d="M0 0 C4.347 3.211 7.029 7.133 8.719 12.27 C9.552 19.921 9.596 26.142 4.719 32.27 C-0.656 37.633 -4.298 39.424 -12.031 39.582 C-18.999 39.517 -22.682 38.801 -27.734 33.844 C-32.925 28.071 -33.752 22.796 -33.586 15.273 C-33.037 9.858 -31.353 6.21 -27.375 2.484 C-19.417 -3.796 -9.058 -5.253 0 0 Z M-27.082 9.551 C-29.777 13.414 -29.863 17.738 -29.281 22.27 C-27.552 27.468 -25.105 31.483 -20.281 34.27 C-14.582 36.503 -10.006 36.634 -4.293 34.391 C0.144 31.918 2.746 27.881 4.719 23.27 C5.504 17.66 4.981 13.005 1.719 8.27 C-2.626 3.894 -5.746 1.436 -12.094 1.02 C-19.043 1.159 -22.804 4.43 -27.082 9.551 Z M-20.281 6.27 C-16.662 6.177 -16.662 6.177 -12.969 6.082 C-11.835 6.041 -11.835 6.041 -10.678 5.999 C-7.79 5.963 -5.77 5.944 -3.328 7.57 C-1.516 10.511 -1.877 12.92 -2.281 16.27 C-4.281 19.207 -4.281 19.207 -6.281 21.27 C-5.92 21.824 -5.559 22.378 -5.188 22.949 C-4.723 23.674 -4.259 24.398 -3.781 25.145 C-3.085 26.223 -3.085 26.223 -2.375 27.324 C-1.281 29.27 -1.281 29.27 -1.281 31.27 C-3.59 31.051 -3.59 31.051 -6.281 30.27 C-7.941 28.238 -7.941 28.238 -9.344 25.77 C-10.679 23.312 -10.679 23.312 -12.281 21.27 C-13.601 20.94 -14.921 20.61 -16.281 20.27 C-16.281 23.9 -16.281 27.53 -16.281 31.27 C-17.601 31.27 -18.921 31.27 -20.281 31.27 C-20.281 23.02 -20.281 14.77 -20.281 6.27 Z M-16.281 9.27 C-16.281 11.91 -16.281 14.55 -16.281 17.27 C-11.826 16.775 -11.826 16.775 -7.281 16.27 C-6.951 14.62 -6.621 12.97 -6.281 11.27 C-9.925 8.84 -11.994 9.108 -16.281 9.27 Z " fill="#2CA01C" transform="translate(516.28125,492.73046875)"/>
</svg>