
<!-- Generator: visioncortex VTracer 0.6.4 -->
<svg version="1.1" xmlns="http://www.w3.org/2000/svg" viewBox="0 0 1382 432" preserveAspectRatio="xMidYMid meet">
<path d="M0 0 C77.55 0 155.1 0 235 0 C235 66.33 235 132.66 235 201 C234.34 201 233.68 201 233 201 C231.786 199.693 231.786 199.693 230.418 197.844 C229.905 197.159 229.392 196.474 228.863 195.769 C228.034 194.646 228.034 194.646 227.188 193.5 C222.691 187.51 218.124 181.604 213.375 175.812 C207.945 169.179 202.619 162.474 197.343 155.718 C195.068 152.807 192.783 149.904 190.5 147 C189.583 145.833 188.667 144.667 187.75 143.5 C187.296 142.923 186.843 142.345 186.375 141.75 C182.25 136.5 182.25 136.5 180.875 134.75 C179.958 133.583 179.04 132.415 178.123 131.248 C175.842 128.345 173.562 125.441 171.285 122.535 C162.073 110.723 162.073 110.723 152.63 99.097 C151 97 151 97 149.449 94.488 C146.783 90.48 144.707 87.524 139.989 86.076 C136.282 85.729 132.688 85.697 128.965 85.773 C127.555 85.766 126.145 85.754 124.735 85.739 C120.927 85.709 117.121 85.741 113.313 85.784 C109.326 85.819 105.34 85.796 101.354 85.78 C93.813 85.758 86.274 85.787 78.734 85.834 C68.539 85.895 58.344 85.877 48.149 85.864 C32.099 85.845 16.051 85.931 0 86 C0 57.62 0 29.24 0 0 Z " fill="#00467F" transform="translate(26,30)"/>
<path d="M0 0 C3.634 1.817 4.56 2.335 6.777 5.352 C7.538 6.369 7.538 6.369 8.313 7.407 C8.849 8.139 9.385 8.871 9.938 9.625 C11.097 11.176 12.258 12.726 13.422 14.273 C14.014 15.062 14.607 15.851 15.217 16.663 C17.96 20.258 20.817 23.756 23.688 27.25 C28.343 32.934 32.883 38.682 37.34 44.523 C40.531 48.705 43.767 52.851 47 57 C51.015 62.155 55.021 67.317 59 72.5 C62.962 77.659 66.945 82.802 70.938 87.938 C71.529 88.699 72.12 89.46 72.729 90.244 C75.57 93.896 78.421 97.538 81.305 101.156 C81.814 101.797 82.323 102.438 82.848 103.098 C83.799 104.293 84.754 105.485 85.713 106.674 C87.661 109.123 89.001 111.002 90 114 C137.52 114 185.04 114 234 114 C234 142.38 234 170.76 234 200 C156.78 200 79.56 200 0 200 C0 134 0 68 0 0 Z " fill="#00467F" transform="translate(168,191)"/>
<path d="M0 0 C36.96 0 73.92 0 112 0 C112 80.52 112 161.04 112 244 C87.25 244 62.5 244 37 244 C37 185.92 37 127.84 37 68 C24.79 68 12.58 68 0 68 C0 45.56 0 23.12 0 0 Z " fill="#B9C7D4" transform="translate(274,47)"/>
<path d="M0 0 C24.42 0 48.84 0 74 0 C74 57.42 74 114.84 74 174 C85.88 174 97.76 174 110 174 C110 197.1 110 220.2 110 244 C73.7 244 37.4 244 0 244 C0 163.48 0 82.96 0 0 Z " fill="#B9C7D4" transform="translate(44,129)"/>
<path d="M0 0 C12.54 0 25.08 0 38 0 C40.815 5.228 40.815 5.228 43.688 10.562 C48.716 19.872 53.86 29.108 59.095 38.302 C63.837 46.652 68.415 55.086 72.951 63.549 C73.467 64.51 73.984 65.471 74.516 66.461 C74.972 67.315 75.429 68.169 75.899 69.048 C76.852 70.941 76.852 70.941 78 72 C78.33 48.24 78.66 24.48 79 0 C88.57 0 98.14 0 108 0 C108 44.88 108 89.76 108 136 C97.77 136 87.54 136 77 136 C75.268 132.659 73.535 129.317 71.75 125.875 C67.146 117.029 62.446 108.242 57.65 99.499 C53.101 91.205 48.619 82.874 44.159 74.532 C39.554 65.949 34.779 57.495 30 49 C29.67 77.71 29.34 106.42 29 136 C19.43 136 9.86 136 0 136 C0 91.12 0 46.24 0 0 Z " fill="#000000" transform="translate(496,112)"/>
<path d="M0 0 C28.38 0 56.76 0 86 0 C86 9.24 86 18.48 86 28 C67.85 28 49.7 28 31 28 C31 34.93 31 41.86 31 49 C47.5 49 64 49 81 49 C81 58.24 81 67.48 81 77 C64.5 77 48 77 31 77 C31 87.56 31 98.12 31 109 C49.15 109 67.3 109 86 109 C86 117.91 86 126.82 86 136 C57.62 136 29.24 136 0 136 C0 91.12 0 46.24 0 0 Z " fill="#000000" transform="translate(628,112)"/>
<path d="M0 0 C34.32 0 68.64 0 104 0 C104 9.24 104 18.48 104 28 C92.12 28 80.24 28 68 28 C68 63.64 68 99.28 68 136 C57.77 136 47.54 136 37 136 C37 100.36 37 64.72 37 28 C24.79 28 12.58 28 0 28 C0 18.76 0 9.52 0 0 Z " fill="#000000" transform="translate(730,112)"/>
<path d="M0 0 C0.147 7.391 -0.292 14.644 -1 22 C-1.666 21.625 -2.333 21.25 -3.02 20.863 C-17.684 12.721 -33.643 4.903 -50.879 8.621 C-57.739 10.721 -62.069 13.98 -66 20 C-67.97 25.911 -67.805 32.628 -65.812 38.5 C-59.423 47.313 -48.216 48.515 -38.243 50.807 C-6.729 58.054 -6.729 58.054 1.074 70.281 C6.594 80.53 6.042 93.202 3.035 104.109 C-0.474 113.908 -7.749 120.924 -16.812 125.75 C-35.969 134.56 -55.955 132.955 -75.492 126.414 C-79 125 -79 125 -86 121 C-86 113.08 -86 105.16 -86 97 C-81.771 99.417 -77.82 101.747 -73.812 104.438 C-61.017 112.583 -47.168 116.912 -32 114 C-25.217 111.832 -19.334 108.726 -15.75 102.375 C-13.044 96.408 -11.828 90.027 -14.188 83.75 C-18.855 76.265 -28.815 73.786 -36.969 71.875 C-39.807 71.226 -42.652 70.607 -45.5 70 C-71.545 64.452 -71.545 64.452 -79.602 54.215 C-86.417 43.42 -87.703 30.253 -85.422 17.859 C-82.475 8.482 -75.57 0.714 -67.004 -4.047 C-46.135 -13.973 -19.719 -11.321 0 0 Z " fill="#000000" transform="translate(938,119)"/>
<path d="M0 0 C5.94 0 11.88 0 18 0 C18.015 2.79 18.029 5.58 18.044 8.454 C18.095 17.702 18.161 26.95 18.236 36.198 C18.28 41.802 18.32 47.405 18.346 53.009 C18.373 58.423 18.413 63.837 18.463 69.251 C18.48 71.31 18.491 73.369 18.498 75.429 C18.394 90.485 18.394 90.485 22 105 C22.435 106.13 22.435 106.13 22.879 107.282 C25.444 113.523 30.335 118.167 36.336 121.168 C43.533 123.416 51.736 123.063 58.562 119.875 C66.927 114.974 70.423 107.423 73.036 98.437 C74.183 93.759 74.307 89.262 74.319 84.463 C74.329 83.545 74.339 82.627 74.349 81.681 C74.38 78.673 74.397 75.665 74.414 72.656 C74.433 70.56 74.452 68.464 74.473 66.368 C74.524 60.871 74.564 55.373 74.601 49.876 C74.641 44.258 74.692 38.641 74.742 33.023 C74.839 22.016 74.922 11.008 75 0 C80.94 0 86.88 0 93 0 C93.045 10.954 93.082 21.908 93.104 32.862 C93.114 37.95 93.128 43.037 93.151 48.125 C93.173 53.047 93.185 57.968 93.19 62.889 C93.193 64.755 93.201 66.621 93.211 68.487 C93.327 89.191 92.715 110.776 78.156 127.062 C69.114 135.66 57.543 138.928 45.293 139.031 C31.693 138.48 21.212 134.785 11.812 124.812 C-1.135 108.733 -0.153 86.47 -0.098 66.992 C-0.096 65.056 -0.094 63.12 -0.093 61.183 C-0.09 56.117 -0.08 51.05 -0.069 45.983 C-0.058 40.801 -0.054 35.619 -0.049 30.438 C-0.038 20.292 -0.021 10.146 0 0 Z " fill="#000000" transform="translate(972,112)"/>
<path d="M0 0 C25.41 0 50.82 0 77 0 C77 5.61 77 11.22 77 17 C56.87 17 36.74 17 16 17 C16 28.88 16 40.76 16 53 C36.13 53 56.26 53 77 53 C77 58.61 77 64.22 77 70 C56.87 70 36.74 70 16 70 C16 86.17 16 102.34 16 119 C36.13 119 56.26 119 77 119 C77 124.61 77 130.22 77 136 C51.59 136 26.18 136 0 136 C0 91.12 0 46.24 0 0 Z " fill="#000000" transform="translate(1276,112)"/>
<path d="M0 0 C33 0 66 0 100 0 C100 5.61 100 11.22 100 17 C86.14 17 72.28 17 58 17 C58 56.27 58 95.54 58 136 C52.72 136 47.44 136 42 136 C42 96.73 42 57.46 42 17 C28.14 17 14.28 17 0 17 C0 11.39 0 5.78 0 0 Z " fill="#000000" transform="translate(1153,112)"/>
<path d="M0 0 C5.61 0 11.22 0 17 0 C17 44.88 17 89.76 17 136 C11.39 136 5.78 136 0 136 C0 91.12 0 46.24 0 0 Z " fill="#000000" transform="translate(1110,112)"/>
<path d="M0 0 C5.94 0 11.88 0 18 0 C22.29 7.92 26.58 15.84 31 24 C31.33 16.08 31.66 8.16 32 0 C36.62 0 41.24 0 46 0 C46 16.17 46 32.34 46 49 C40.72 49 35.44 49 30 49 C27.874 45.251 25.749 41.501 23.625 37.75 C23.022 36.687 22.418 35.623 21.797 34.527 C21.217 33.503 20.637 32.478 20.039 31.422 C19.505 30.479 18.971 29.537 18.42 28.565 C17.225 26.407 16.104 24.207 15 22 C14.67 30.91 14.34 39.82 14 49 C9.38 49 4.76 49 0 49 C0 32.83 0 16.66 0 0 Z M32 26 C33 28 33 28 33 28 Z " fill="#000000" transform="translate(815,302)"/>
<path d="M0 0 C1.039 -0.029 2.078 -0.058 3.148 -0.088 C11.754 -0.158 20.002 1.35 27 6.688 C31.8 11.727 33.219 16.735 33.75 23.5 C33.267 30.869 31.467 37.389 26.309 42.844 C20.015 47.955 12.464 49.451 4.543 49.41 C3.54 49.408 2.538 49.405 1.505 49.403 C0.245 49.393 -1.015 49.384 -2.312 49.375 C-6.334 49.354 -10.356 49.334 -14.5 49.312 C-14.5 33.472 -14.5 17.632 -14.5 1.312 C-9.759 -0.268 -4.966 0.045 0 0 Z M-0.5 11.312 C-0.5 20.223 -0.5 29.132 -0.5 38.312 C8.328 38.721 8.328 38.721 14.5 34.312 C17.599 29.768 18.28 25.663 17.5 20.312 C16.264 16.864 15.14 14.894 12.438 12.438 C8.468 10.716 8.468 10.716 -0.5 11.312 Z " fill="#000000" transform="translate(1122.5,301.6875)"/>
<path d="M0 0 C5.337 4.779 8.359 10.249 9.316 17.344 C9.674 24.629 8.137 32.18 3.422 37.922 C-2.774 43.559 -9.227 45.555 -17.438 45.438 C-18.189 45.428 -18.94 45.419 -19.714 45.41 C-27.843 45.155 -32.291 43.049 -37.875 37.125 C-43.394 30.26 -43.713 23.592 -43 15 C-41.784 8.962 -38.681 3.992 -34 0 C-23.652 -6.12 -10.107 -7.314 0 0 Z M-26 12 C-27.915 17.745 -27.772 23.903 -25.688 29.562 C-24.069 32.22 -24.069 32.22 -21 34 C-16.93 34.539 -16.93 34.539 -13 34 C-10.272 31.826 -8.558 29.116 -7 26 C-6.227 18.382 -6.227 18.382 -8.875 11.438 C-12.009 7.574 -12.009 7.574 -16.812 6.562 C-21.36 6.662 -23.227 8.387 -26 12 Z " fill="#000000" transform="translate(800,306)"/>
<path d="M0 0 C6.213 5.436 8.605 11.85 9.375 19.938 C9.025 27.264 6.953 34.211 1.762 39.527 C-5.343 45.466 -13.113 45.754 -22.027 45.375 C-30.259 44.598 -34.232 41.31 -39.555 35.195 C-43.802 28.745 -43.841 21.453 -43 14 C-40.941 7.281 -37.226 1.46 -31 -2 C-20.772 -5.98 -9.237 -6.664 0 0 Z M-26 12 C-28.205 16.41 -27.437 22.2 -27 27 C-25.759 30.246 -24.181 32.409 -21 34 C-15.876 34.766 -15.876 34.766 -11.398 32.766 C-7.441 28.09 -6.71 24.168 -6.777 18.285 C-7.096 15.016 -8.237 12.742 -10 10 C-10.392 9.381 -10.784 8.762 -11.188 8.125 C-17.213 4.385 -22.091 7.024 -26 12 Z " fill="#000000" transform="translate(585,306)"/>
<path d="M0 0 C6.138 7.111 7.374 13.16 7.27 22.418 C6.733 29.553 4.321 34.08 -0.875 38.938 C-7.403 44.527 -14.906 44.52 -23.074 44.309 C-29.904 43.772 -34.593 41.784 -39.375 36.875 C-43.938 30.969 -45.804 23.369 -45 16 C-43.389 9.02 -40.862 2.493 -34.664 -1.508 C-23.404 -7.425 -10.577 -7.877 0 0 Z M-25.938 8.812 C-29.219 13.885 -29.564 18.111 -29 24 C-27.482 28.098 -25.977 31.012 -22 33 C-18.543 33.667 -18.543 33.667 -15 33 C-12.37 30.827 -10.527 29.053 -9 26 C-8.096 17.272 -8.096 17.272 -10.875 9.25 C-13.752 6.203 -14.548 6.052 -18.812 5.562 C-22.262 5.588 -23.703 6.173 -25.938 8.812 Z " fill="#000000" transform="translate(1020,307)"/>
<path d="M0 0 C1.004 -0.021 2.007 -0.041 3.041 -0.062 C10.444 -0.101 17.487 0.424 23.312 5.375 C25.37 9.319 26.154 12.799 25.812 17.25 C24.58 20.617 23.134 23.589 19.812 25.25 C20.888 27.981 22.002 30.654 23.25 33.312 C25.471 38.412 26.539 43.854 27.812 49.25 C22.862 49.25 17.912 49.25 12.812 49.25 C10.159 43.589 8.144 38.355 6.812 32.25 C4.503 31.92 2.193 31.59 -0.188 31.25 C-0.188 37.19 -0.188 43.13 -0.188 49.25 C-5.138 49.25 -10.088 49.25 -15.188 49.25 C-15.188 33.41 -15.188 17.57 -15.188 1.25 C-10.066 -0.03 -5.258 0.027 0 0 Z M-0.188 11.25 C-0.26 12.936 -0.271 14.625 -0.25 16.312 C-0.241 17.232 -0.232 18.151 -0.223 19.098 C-0.211 19.808 -0.199 20.518 -0.188 21.25 C5.1 20.947 5.1 20.947 9.875 19 C11.022 17.204 11.022 17.204 10.75 14.688 C10.03 12.171 10.03 12.171 8.062 10.938 C5.417 10.129 1.967 9.095 -0.188 11.25 Z " fill="#000000" transform="translate(1219.1875,301.75)"/>
<path d="M0 0 C1.064 -0.021 2.128 -0.041 3.225 -0.062 C10.645 -0.099 16.802 0.369 22.75 5.25 C25.404 8.648 25.648 11.941 25.602 16.18 C25.127 19.577 23.497 21.691 21.312 24.25 C20.322 24.58 19.332 24.91 18.312 25.25 C19.055 26.302 19.798 27.354 20.562 28.438 C24.343 34.448 27.312 42.095 27.312 49.25 C22.362 49.25 17.413 49.25 12.312 49.25 C9.488 42.93 9.488 42.93 8.691 39.852 C8.38 38.657 8.38 38.657 8.062 37.438 C7.892 36.689 7.722 35.94 7.547 35.168 C6.021 32.334 6.021 32.334 -0.688 31.25 C-0.688 37.19 -0.688 43.13 -0.688 49.25 C-5.308 49.25 -9.928 49.25 -14.688 49.25 C-14.688 33.41 -14.688 17.57 -14.688 1.25 C-9.896 -0.347 -5.018 0.024 0 0 Z M-0.688 11.25 C-0.76 12.936 -0.771 14.625 -0.75 16.312 C-0.741 17.232 -0.732 18.151 -0.723 19.098 C-0.711 19.808 -0.699 20.518 -0.688 21.25 C0.772 21.136 2.23 21.008 3.688 20.875 C4.5 20.805 5.312 20.736 6.148 20.664 C8.516 20.421 8.516 20.421 10.312 18.25 C10.896 15.793 10.896 15.793 10.312 13.25 C7.695 11.081 5.95 10.308 2.562 10 C0.345 10.009 0.345 10.009 -0.688 11.25 Z " fill="#000000" transform="translate(945.6875,301.75)"/>
<path d="M0 0 C4.95 0 9.9 0 15 0 C15.049 2.18 15.098 4.36 15.148 6.605 C15.203 8.727 15.26 10.848 15.317 12.97 C15.356 14.439 15.39 15.909 15.422 17.378 C15.468 19.496 15.526 21.613 15.586 23.73 C15.617 25.003 15.649 26.276 15.681 27.587 C15.985 30.836 16.498 33.119 18 36 C20.799 37.399 22.905 37.253 26 37 C28.815 35.058 29.374 33.268 30 30 C30.148 27.685 30.248 25.366 30.316 23.047 C30.337 22.387 30.358 21.726 30.379 21.046 C30.445 18.948 30.504 16.849 30.562 14.75 C30.606 13.323 30.649 11.896 30.693 10.469 C30.801 6.979 30.9 3.49 31 0 C35.95 0 40.9 0 46 0 C46.046 3.965 46.086 7.93 46.11 11.896 C46.125 13.897 46.15 15.899 46.176 17.9 C46.27 36.511 46.27 36.511 40 44 C32.075 49.984 23.562 49.865 14 49 C9.442 47.87 6.758 45.857 3.625 42.312 C-0.737 33.42 -0.246 24.094 -0.125 14.438 C-0.115 13.033 -0.106 11.629 -0.098 10.225 C-0.074 6.816 -0.038 3.408 0 0 Z " fill="#000000" transform="translate(638,302)"/>
<path d="M0 0 C11.55 0 23.1 0 35 0 C35 3.96 35 7.92 35 12 C28.4 12 21.8 12 15 12 C15 13.98 15 15.96 15 18 C21.27 18 27.54 18 34 18 C34 21.96 34 25.92 34 30 C27.73 30 21.46 30 15 30 C15 32.31 15 34.62 15 37 C21.93 37 28.86 37 36 37 C36 40.96 36 44.92 36 49 C24.12 49 12.24 49 0 49 C0 32.83 0 16.66 0 0 Z " fill="#000000" transform="translate(1162,302)"/>
<path d="M0 0 C5.28 0 10.56 0 16 0 C17.128 3.499 18.253 6.999 19.375 10.5 C19.692 11.482 20.009 12.465 20.336 13.477 C22.088 18.951 23.681 24.405 25 30 C27.513 22.643 29.747 15.219 31.926 7.758 C32.307 6.47 32.307 6.47 32.695 5.156 C33.036 3.993 33.036 3.993 33.383 2.807 C34 1 34 1 35 0 C37.697 -0.073 40.367 -0.092 43.062 -0.062 C43.821 -0.058 44.58 -0.053 45.361 -0.049 C47.241 -0.037 49.12 -0.019 51 0 C45.603 16.437 40.019 32.78 34 49 C28.06 49 22.12 49 16 49 C13.876 42.988 11.758 36.974 9.646 30.958 C8.927 28.913 8.207 26.868 7.484 24.824 C6.444 21.882 5.411 18.937 4.379 15.992 C4.056 15.083 3.733 14.173 3.4 13.236 C3.1 12.375 2.8 11.515 2.49 10.628 C2.226 9.878 1.962 9.127 1.69 8.354 C0.891 5.628 0.467 2.802 0 0 Z " fill="#000000" transform="translate(1029,302)"/>
<path d="M0 0 C1.016 -0.021 2.033 -0.041 3.08 -0.062 C9.611 -0.096 16.255 0.008 21.368 4.667 C25.142 8.99 26.121 12.495 26.027 18.191 C25.577 22.506 23.665 25.346 20.75 28.438 C13.873 32.681 7.892 33.25 -0.188 33.25 C-0.188 38.53 -0.188 43.81 -0.188 49.25 C-4.808 49.25 -9.428 49.25 -14.188 49.25 C-14.188 33.41 -14.188 17.57 -14.188 1.25 C-9.536 -0.3 -4.872 0.024 0 0 Z M-0.188 11.25 C-0.188 14.88 -0.188 18.51 -0.188 22.25 C5.189 22.581 5.189 22.581 9.812 20.25 C10.895 17.34 10.895 17.34 10.812 14.25 C9.857 12.294 9.857 12.294 7.812 11.25 C3.715 10.132 3.715 10.132 -0.188 11.25 Z " fill="#000000" transform="translate(899.1875,301.75)"/>
<path d="M0 0 C0.837 0.001 1.673 0.003 2.535 0.004 C6.723 0.064 9.543 0.281 13.25 2.375 C12.375 10 12.375 10 11.25 13.375 C10.281 13.21 9.311 13.045 8.312 12.875 C3.955 12.241 -0.356 12.285 -4.75 12.375 C-5.08 13.365 -5.41 14.355 -5.75 15.375 C-4.653 15.811 -3.556 16.246 -2.426 16.695 C-0.971 17.296 0.483 17.898 1.938 18.5 C2.659 18.784 3.38 19.067 4.123 19.359 C9.27 21.521 12.184 23.658 15.25 28.375 C16.397 33.449 15.806 38.046 13.812 42.812 C7.038 49.587 -0.066 49.734 -9.19 49.755 C-14.043 49.66 -18.143 48.903 -22.75 47.375 C-22.09 43.745 -21.43 40.115 -20.75 36.375 C-17.75 35.375 -17.75 35.375 -14.562 36.312 C-10.072 37.564 -5.1 38.55 -0.75 36.375 C-0.75 35.385 -0.75 34.395 -0.75 33.375 C-1.847 32.939 -2.944 32.504 -4.074 32.055 C-5.529 31.454 -6.983 30.852 -8.438 30.25 C-9.159 29.966 -9.88 29.683 -10.623 29.391 C-15.769 27.229 -18.665 25.075 -21.75 20.375 C-22.923 15.597 -22.228 11.451 -20.25 7 C-14.432 0.891 -8.177 -0.244 0 0 Z " fill="#000000" transform="translate(521.75,301.625)"/>
<path d="M0 0 C13.53 0 27.06 0 41 0 C41 3.96 41 7.92 41 12 C36.71 12 32.42 12 28 12 C28 24.21 28 36.42 28 49 C23.05 49 18.1 49 13 49 C13 36.79 13 24.58 13 12 C8.71 12 4.42 12 0 12 C0 8.04 0 4.08 0 0 Z " fill="#000000" transform="translate(689,302)"/>
<path d="M0 0 C4.95 0 9.9 0 15 0 C15 12.21 15 24.42 15 37 C21.6 37 28.2 37 35 37 C35 40.96 35 44.92 35 49 C23.45 49 11.9 49 0 49 C0 32.83 0 16.66 0 0 Z " fill="#000000" transform="translate(600,302)"/>
<path d="M0 0 C4.95 0 9.9 0 15 0 C15 16.17 15 32.34 15 49 C10.05 49 5.1 49 0 49 C0 32.83 0 16.66 0 0 Z " fill="#000000" transform="translate(1084,302)"/>
<path d="M0 0 C4.95 0 9.9 0 15 0 C15 16.17 15 32.34 15 49 C10.05 49 5.1 49 0 49 C0 32.83 0 16.66 0 0 Z " fill="#000000" transform="translate(736,302)"/>
</svg>