<svg width="1200" height="630" viewBox="0 0 1200 630" fill="none" xmlns="http://www.w3.org/2000/svg">
  <rect width="1200" height="630" fill="#0f172a"/>
  <svg x="351" y="35" viewBox="0 0 498 560" width="498" height="560" xmlns="http://www.w3.org/2000/svg">
    <path fill="#CCDFFF" d="m321.773 146.154-39.928-33.638V63.85l39.928 33.508 42.422-33.508 42.425 33.508 39.833-33.508v48.749l-39.833 33.555-42.425-33.508zm0 82.304-39.928-33.638v-48.666l39.928 33.508 42.422-33.508 42.425 33.508 39.833-33.508v48.749l-39.833 33.555-42.425-33.508z"></path>
    <path fill="#F6F5EF" d="m133.863 70.086 21.667-39.512 4.896 44.798 35.136-28.214-12.618 43.259 43.259-12.62-28.211 35.14 44.795 4.896-39.513 21.665 39.513 21.668-44.795 4.896 28.21 35.136-43.258-12.619 12.618 43.26-35.136-28.212-4.896 44.795-21.667-39.512-21.665 39.512-4.897-44.795-35.138 28.211L84.78 188.58l-43.259 12.619 28.214-35.136-44.797-4.896 39.512-21.668-39.512-21.665 44.797-4.896-28.214-35.14 43.26 12.62-12.62-43.26 35.14 28.215 4.896-44.798z"></path>
    <path fill="#CCDFFF" d="m91.425 353.31-39.927-33.638v-48.666l39.927 33.508 42.422-33.508 42.425 33.508 39.834-33.508v48.748l-39.834 33.556-42.425-33.508zm0 82.304-39.927-33.638V353.31l39.927 33.508 42.422-33.508 42.425 33.508 39.834-33.508v48.748l-39.834 33.556-42.425-33.508z"></path>
    <path fill="#F6F5EF" d="m364.15 283.898 21.668-39.512 4.896 44.798 35.136-28.214-12.619 43.26 43.26-12.62-28.212 35.14 44.795 4.895-39.512 21.665 39.512 21.668-44.795 4.896 28.211 35.136-43.259-12.619 12.619 43.26-35.136-28.212-4.896 44.795-21.668-39.512-21.665 39.512-4.896-44.795-35.14 28.212 12.62-43.26-43.26 12.62 28.215-35.137-44.798-4.896 39.512-21.668-39.512-21.665 44.798-4.896-28.214-35.139 43.259 12.62-12.62-43.26 35.14 28.214 4.896-44.798z"></path>
  </svg>
</svg>