
<!-- Generator: visioncortex VTracer 0.6.4 -->
<svg version="1.1" xmlns="http://www.w3.org/2000/svg" viewBox="0 0 500 500" preserveAspectRatio="xMidYMid meet">
<path d="M0 0 C1.542 0.002 1.542 0.002 3.116 0.004 C17.959 0.051 32.232 0.414 46.625 4.375 C47.654 4.649 48.682 4.923 49.742 5.205 C77.216 12.667 102.353 24.498 124.625 42.375 C125.897 43.344 125.897 43.344 127.195 44.332 C160.545 70.365 184.292 108.079 195.312 148.75 C195.503 149.444 195.693 150.137 195.89 150.852 C199.889 166.374 201.137 181.473 201.071 197.459 C201.063 200.608 201.091 203.754 201.123 206.902 C201.295 256.621 180.18 304.175 146.037 339.896 C145.101 340.877 144.17 341.863 143.244 342.854 C126.472 360.797 105.756 374.015 83.625 384.375 C82.533 384.897 81.441 385.419 80.316 385.957 C69.468 390.893 58.122 394.304 46.625 397.375 C45.785 397.605 44.946 397.836 44.081 398.073 C16.804 405.185 -18.14 404.574 -45.375 397.375 C-46.683 397.054 -46.683 397.054 -48.017 396.726 C-61.006 393.514 -73.233 388.969 -85.375 383.375 C-86.02 383.08 -86.666 382.785 -87.331 382.48 C-114.532 369.893 -138.863 349.804 -157.375 326.375 C-158.168 325.411 -158.961 324.447 -159.777 323.453 C-176.42 302.735 -188.433 277.318 -195.062 251.625 C-195.253 250.901 -195.443 250.177 -195.639 249.43 C-199.346 234.27 -200.881 219.025 -200.766 203.448 C-200.75 200.875 -200.766 198.303 -200.785 195.73 C-200.806 179.847 -198.841 164.227 -194.688 148.875 C-194.432 147.921 -194.176 146.968 -193.913 145.985 C-185.717 116.511 -170.563 90.192 -150.375 67.375 C-149.638 66.515 -148.9 65.655 -148.141 64.77 C-133.278 47.71 -115.129 34.28 -95.375 23.375 C-94.765 23.037 -94.156 22.698 -93.528 22.35 C-75.315 12.388 -55.73 6.18 -35.375 2.375 C-34.466 2.19 -33.556 2.004 -32.619 1.813 C-21.816 -0.159 -10.943 -0.024 0 0 Z " fill="#00B7E3" transform="translate(249.375,49.625)"/>
<path d="M0 0 C8.972 7.421 15.851 18.854 17.359 30.512 C17.64 43.226 14.281 55.202 6.301 65.238 C-3.765 75.712 -15.173 80.585 -29.512 80.957 C-39.902 80.75 -47.459 77.362 -56.012 71.645 C-57.342 70.778 -57.342 70.778 -58.699 69.895 C-62.459 66.237 -65.23 62.074 -68.012 57.645 C-68.526 56.878 -69.04 56.111 -69.57 55.32 C-75.209 45.4 -74.636 31.776 -72.16 20.906 C-67.064 7.541 -56.954 -0.82 -44.809 -7.582 C-30.198 -13.737 -12.236 -8.836 0 0 Z " fill="#03B7E3" transform="translate(388.01171875,214.35546875)"/>
<path d="M0 0 C8.405 6.829 15.285 16.675 16.832 27.551 C17.064 31.894 16.459 34.71 13.832 38.301 C9.845 41.282 6.948 41.669 2.022 41.641 C1.358 41.642 0.694 41.642 0.01 41.643 C-2.171 41.641 -4.351 41.617 -6.531 41.594 C-8.049 41.588 -9.566 41.584 -11.084 41.581 C-15.067 41.569 -19.05 41.54 -23.034 41.507 C-27.102 41.476 -31.171 41.462 -35.24 41.447 C-43.216 41.415 -51.192 41.364 -59.168 41.301 C-58.695 42.747 -58.22 44.193 -57.744 45.638 C-57.48 46.443 -57.216 47.248 -56.943 48.078 C-53.799 57.092 -47.504 62.07 -39.168 66.301 C-31.118 69.099 -21.047 68.167 -13.418 64.641 C-8.616 61.781 -4.701 58.059 -1.043 53.863 C0.832 52.301 0.832 52.301 3.895 51.863 C6.832 52.301 6.832 52.301 8.707 53.426 C10.492 56.4 10.48 57.864 9.832 61.301 C7.809 64.29 5.394 66.769 2.832 69.301 C2.315 69.851 1.798 70.402 1.266 70.969 C-7.425 79.442 -20.156 81.643 -31.824 81.512 C-43.191 80.795 -54.505 74.703 -62.168 66.301 C-69.206 56.906 -72.75 48.169 -72.605 36.426 C-72.596 35.547 -72.587 34.669 -72.578 33.764 C-72.233 20.804 -67.072 11.025 -57.777 1.973 C-40.889 -12.367 -17.781 -12.485 0 0 Z " fill="#F6FCFE" transform="translate(253.16796875,213.69921875)"/>
<path d="M0 0 C8.972 7.421 15.851 18.854 17.359 30.512 C17.64 43.226 14.281 55.202 6.301 65.238 C-3.765 75.712 -15.173 80.585 -29.512 80.957 C-39.902 80.75 -47.459 77.362 -56.012 71.645 C-57.342 70.778 -57.342 70.778 -58.699 69.895 C-62.459 66.237 -65.23 62.074 -68.012 57.645 C-68.526 56.878 -69.04 56.111 -69.57 55.32 C-75.209 45.4 -74.636 31.776 -72.16 20.906 C-67.064 7.541 -56.954 -0.82 -44.809 -7.582 C-30.198 -13.737 -12.236 -8.836 0 0 Z M-55.469 17.422 C-61.181 25.65 -61.373 34.969 -60.012 44.645 C-57.144 53.422 -51.009 60.752 -42.824 65.02 C-35.154 68.613 -26.211 68.917 -18.137 66.395 C-8.837 62.765 -2.607 56.24 1.926 47.457 C4.987 40.07 5.546 32.897 2.773 25.328 C-1.392 16.69 -6.297 9.477 -15.336 5.664 C-31.811 0.155 -44.294 4.92 -55.469 17.422 Z " fill="#F7FCFE" transform="translate(388.01171875,214.35546875)"/>
<path d="M0 0 C2.961 2.164 5.38 4.803 7.883 7.473 C8.988 8.608 8.988 8.608 10.115 9.767 C12.467 12.185 14.797 14.621 17.125 17.062 C19.461 19.506 21.8 21.945 24.156 24.369 C25.622 25.877 27.076 27.397 28.517 28.929 C29.178 29.61 29.839 30.291 30.52 30.992 C31.097 31.599 31.674 32.205 32.269 32.829 C33.93 34.208 33.93 34.208 36.006 33.884 C38.335 32.851 39.627 31.697 41.388 29.857 C42.029 29.197 42.67 28.536 43.331 27.855 C44.013 27.139 44.695 26.422 45.398 25.684 C46.862 24.183 48.325 22.682 49.789 21.182 C52.088 18.808 54.382 16.43 56.668 14.044 C58.877 11.744 61.105 9.463 63.336 7.184 C64.014 6.465 64.693 5.746 65.391 5.006 C70.198 0.124 70.198 0.124 74.362 -0.519 C77 0 77 0 78.875 1.125 C80.66 4.099 80.648 5.563 80 9 C74.32 17.148 66.092 24.019 59.062 31 C57.793 32.264 56.525 33.528 55.256 34.793 C52.173 37.865 49.087 40.933 46 44 C47.34 46.997 48.801 49.028 51.165 51.296 C51.805 51.917 52.446 52.538 53.105 53.178 C53.795 53.839 54.485 54.499 55.195 55.18 C56.648 56.597 58.1 58.015 59.551 59.434 C61.84 61.661 64.134 63.883 66.438 66.095 C68.662 68.235 70.867 70.393 73.07 72.555 C73.764 73.211 74.458 73.868 75.172 74.544 C79.868 79.188 79.868 79.188 80.539 83.313 C79.847 86.764 78.91 88.034 76 90 C65.509 88.989 56.101 75.213 49 68.062 C47.736 66.793 46.472 65.525 45.207 64.256 C42.135 61.173 39.067 58.087 36 55 C31.195 58.982 26.754 63.172 22.438 67.676 C21.217 68.928 19.996 70.18 18.773 71.432 C16.877 73.378 14.985 75.328 13.106 77.291 C11.272 79.204 9.419 81.097 7.562 82.988 C7.008 83.577 6.454 84.165 5.883 84.772 C2.026 88.654 -0.51 89.779 -6 90 C-6 89.34 -6 88.68 -6 88 C-6.66 88 -7.32 88 -8 88 C-9.519 84.962 -9.531 83.4 -9 80 C-6.849 76.997 -4.223 74.527 -1.562 71.977 C-0.431 70.857 -0.431 70.857 0.724 69.715 C3.136 67.337 5.567 64.981 8 62.625 C9.639 61.016 11.277 59.405 12.914 57.793 C16.927 53.846 20.957 49.917 25 46 C23.674 43.056 22.238 40.995 19.943 38.732 C19.017 37.811 19.017 37.811 18.073 36.872 C17.408 36.221 16.743 35.569 16.059 34.898 C15.034 33.882 15.034 33.882 13.989 32.845 C11.81 30.683 9.624 28.529 7.438 26.375 C5.248 24.213 3.06 22.05 0.875 19.884 C-0.484 18.537 -1.847 17.192 -3.212 15.85 C-3.826 15.243 -4.44 14.635 -5.073 14.009 C-5.615 13.475 -6.157 12.941 -6.716 12.39 C-8.709 10.232 -8.997 9.035 -9.25 6.062 C-9 3 -9 3 -7.875 1.125 C-4.94 -0.636 -3.406 -0.542 0 0 Z " fill="#F7FCFE" transform="translate(101,205)"/>
<path d="M0 0 C0.681 0.412 1.361 0.825 2.062 1.25 C2.702 1.498 3.341 1.745 4 2 C4.825 1.546 5.65 1.093 6.5 0.625 C11.484 -1.689 16.587 -1.957 22 -1 C24.371 0.832 24.371 0.832 26 3 C25.938 6.125 25.938 6.125 25 9 C21.711 11.193 19.986 11.374 16.125 11.812 C12.047 12.443 10.253 12.813 6.875 15.312 C3.676 19.898 2.751 23.55 2.729 29.12 C2.719 30.331 2.708 31.542 2.698 32.79 C2.696 34.089 2.694 35.388 2.691 36.727 C2.68 38.08 2.668 39.433 2.654 40.786 C2.599 46.52 2.568 52.253 2.544 57.986 C2.528 61.5 2.498 65.013 2.459 68.527 C2.442 70.514 2.441 72.501 2.441 74.488 C2.428 75.693 2.414 76.898 2.401 78.139 C2.396 79.201 2.39 80.263 2.385 81.357 C2 84 2 84 0.662 85.843 C-1.931 87.648 -3.934 87.383 -7 87 C-8.663 85.965 -8.663 85.965 -10 84 C-10.296 81.316 -10.41 78.864 -10.388 76.18 C-10.393 75.384 -10.399 74.589 -10.404 73.769 C-10.417 71.138 -10.409 68.507 -10.398 65.875 C-10.4 64.048 -10.403 62.221 -10.407 60.394 C-10.412 56.564 -10.405 52.734 -10.391 48.904 C-10.374 43.991 -10.384 39.079 -10.402 34.165 C-10.413 30.392 -10.409 26.62 -10.401 22.847 C-10.399 21.035 -10.402 19.223 -10.409 17.412 C-10.416 14.881 -10.405 12.351 -10.388 9.82 C-10.397 8.693 -10.397 8.693 -10.407 7.544 C-10.37 4.6 -10.328 2.502 -8.691 -0 C-5.761 -1.733 -3.185 -0.726 0 0 Z " fill="#FAFDFE" transform="translate(292,207)"/>
<path d="M0 0 C2.938 2.562 2.938 2.562 5 5 C5.722 5.846 6.444 6.691 7.188 7.562 C10.032 11.388 11 13.141 11 18 C-9.13 18 -29.26 18 -50 18 C-48.715 9.008 -45.06 4.261 -38.125 -1.438 C-26.676 -9.325 -10.89 -7.896 0 0 Z " fill="#02B7E3" transform="translate(245,224)"/>
<path d="M0 0 C4.166 1.759 6.175 3.87 8 8 C8.593 11.982 8.174 13.676 6.25 17.25 C3.059 21.15 3.059 21.15 0 22 C-6.918 22.659 -6.918 22.659 -10.875 20.25 C-13.79 17.163 -14.825 15.341 -15.375 11.125 C-14.899 7.155 -13.47 5.105 -11 2 C-7.286 -0.476 -4.304 -0.539 0 0 Z " fill="#F5FCFD" transform="translate(363,239)"/>
</svg>